<?xml version="1.0" encoding="UTF-8"?>
<svg xmlns="http://www.w3.org/2000/svg" xmlns:xlink="http://www.w3.org/1999/xlink" width="48pt" height="48pt" viewBox="0 0 48 48" version="1.1">
<g id="surface1">
<path style=" stroke:none;fill-rule:nonzero;fill:#E53935;fill-opacity:1;" d="M 40 20 L 37 20 L 37 11 L 40 11 C 40.601563 11 41 11.398438 41 12 L 41 19 C 41 19.601563 40.601563 20 40 20 Z "/>
<path style=" stroke:none;fill-rule:nonzero;fill:#FDD835;fill-opacity:1;" d="M 40 27 L 37 27 L 37 18 L 40 18 C 40.601563 18 41 18.398438 41 19 L 41 26 C 41 26.601563 40.601563 27 40 27 Z "/>
<path style=" stroke:none;fill-rule:nonzero;fill:#388E3C;fill-opacity:1;" d="M 40 34 L 37 34 L 37 25 L 40 25 C 40.601563 25 41 25.398438 41 26 L 41 33 C 41 33.601563 40.601563 34 40 34 Z "/>
<path style=" stroke:none;fill-rule:nonzero;fill:#2196F3;fill-opacity:1;" d="M 9 40 L 9 8 C 9 6.898438 9.898438 6 11 6 L 37 6 C 38.101563 6 39 6.898438 39 8 L 39 40 C 39 41.101563 38.101563 42 37 42 L 11 42 C 9.898438 42 9 41.101563 9 40 Z "/>
<path style=" stroke:none;fill-rule:nonzero;fill:#1565C0;fill-opacity:1;" d="M 14 36 C 14 37.105469 13.105469 38 12 38 C 10.894531 38 10 37.105469 10 36 C 10 34.894531 10.894531 34 12 34 C 13.105469 34 14 34.894531 14 36 Z "/>
<path style=" stroke:none;fill-rule:nonzero;fill:#1565C0;fill-opacity:1;" d="M 14 28 C 14 29.105469 13.105469 30 12 30 C 10.894531 30 10 29.105469 10 28 C 10 26.894531 10.894531 26 12 26 C 13.105469 26 14 26.894531 14 28 Z "/>
<path style=" stroke:none;fill-rule:nonzero;fill:#1565C0;fill-opacity:1;" d="M 14 20 C 14 21.105469 13.105469 22 12 22 C 10.894531 22 10 21.105469 10 20 C 10 18.894531 10.894531 18 12 18 C 13.105469 18 14 18.894531 14 20 Z "/>
<path style=" stroke:none;fill-rule:nonzero;fill:#1565C0;fill-opacity:1;" d="M 14 12 C 14 13.105469 13.105469 14 12 14 C 10.894531 14 10 13.105469 10 12 C 10 10.894531 10.894531 10 12 10 C 13.105469 10 14 10.894531 14 12 Z "/>
<path style=" stroke:none;fill-rule:nonzero;fill:#B0BEC5;fill-opacity:1;" d="M 12 37 L 8 37 C 7.398438 37 7 36.601563 7 36 C 7 35.398438 7.398438 35 8 35 L 12 35 C 12.601563 35 13 35.398438 13 36 C 13 36.601563 12.601563 37 12 37 Z "/>
<path style=" stroke:none;fill-rule:nonzero;fill:#B0BEC5;fill-opacity:1;" d="M 12 29 L 8 29 C 7.398438 29 7 28.601563 7 28 C 7 27.398438 7.398438 27 8 27 L 12 27 C 12.601563 27 13 27.398438 13 28 C 13 28.601563 12.601563 29 12 29 Z "/>
<path style=" stroke:none;fill-rule:nonzero;fill:#B0BEC5;fill-opacity:1;" d="M 12 21 L 8 21 C 7.398438 21 7 20.601563 7 20 C 7 19.398438 7.398438 19 8 19 L 12 19 C 12.601563 19 13 19.398438 13 20 C 13 20.601563 12.601563 21 12 21 Z "/>
<path style=" stroke:none;fill-rule:nonzero;fill:#B0BEC5;fill-opacity:1;" d="M 12 13 L 8 13 C 7.398438 13 7 12.601563 7 12 C 7 11.398438 7.398438 11 8 11 L 12 11 C 12.601563 11 13 11.398438 13 12 C 13 12.601563 12.601563 13 12 13 Z "/>
<path style=" stroke:none;fill-rule:nonzero;fill:#F5F5F5;fill-opacity:1;" d="M 18 15 L 32 15 L 32 25 L 18 25 Z "/>
<path style=" stroke:none;fill-rule:nonzero;fill:#1565C0;fill-opacity:1;" d="M 20 17 L 30 17 L 30 19 L 20 19 Z "/>
<path style=" stroke:none;fill-rule:nonzero;fill:#1565C0;fill-opacity:1;" d="M 20 21 L 30 21 L 30 23 L 20 23 Z "/>
</g>
</svg>
