<?xml version="1.0"?>
<svg xmlns="http://www.w3.org/2000/svg" xmlns:xlink="http://www.w3.org/1999/xlink" version="1.1" id="Capa_1" x="0px" y="0px" viewBox="0 0 512 512" style="enable-background:new 0 0 512 512;" xml:space="preserve" width="512px" height="512px" class=""><g><g>
	<g>
		<path d="M220.645,63.836l-21.213-21.213c-31.192,31.192-31.192,81.945,0,113.137l21.213-21.213    C201.151,115.052,201.151,83.331,220.645,63.836z" data-original="#000000" class="active-path" data-old_color="#000000" fill="#04458F"/>
	</g>
</g><g>
	<g>
		<path d="M178.218,21.41L157.005,0.197c-54.586,54.585-54.586,143.404,0,197.99l21.213-21.213    C135.329,134.085,135.329,64.299,178.218,21.41z" data-original="#000000" class="active-path" data-old_color="#000000" fill="#04458F"/>
	</g>
</g><g>
	<g>
		<circle cx="256" cy="99.19" r="20" data-original="#000000" class="active-path" data-old_color="#000000" fill="#04458F"/>
	</g>
</g><g>
	<g>
		<path d="M312.568,42.623l-21.213,21.213c19.494,19.495,19.494,51.216,0,70.711l21.213,21.213    C343.759,124.569,343.759,73.816,312.568,42.623z" data-original="#000000" class="active-path" data-old_color="#000000" fill="#04458F"/>
	</g>
</g><g>
	<g>
		<path d="M354.995,0.197L333.782,21.41c42.889,42.889,42.889,112.674,0,155.564l21.213,21.213    C409.581,143.601,409.581,54.783,354.995,0.197z" data-original="#000000" class="active-path" data-old_color="#000000" fill="#04458F"/>
	</g>
</g><g>
	<g>
		<path d="M271,361.803V149.191h-30v212.612H0v150h512v-150H271z M362,456.803c-11.046,0-20-8.954-20-20c0-11.046,8.954-20,20-20    c11.046,0,20,8.954,20,20C382,447.849,373.046,456.803,362,456.803z M432,456.803c-11.046,0-20-8.954-20-20    c0-11.046,8.954-20,20-20c11.046,0,20,8.954,20,20C452,447.849,443.046,456.803,432,456.803z" data-original="#000000" class="active-path" data-old_color="#000000" fill="#04458F"/>
	</g>
</g></g> </svg>
