<?xml version="1.0" encoding="UTF-8"?>
<svg xmlns="http://www.w3.org/2000/svg" xmlns:xlink="http://www.w3.org/1999/xlink" width="100pt" height="100pt" viewBox="0 0 100 100" version="1.1">
<g id="surface1">
<path style=" stroke:none;fill-rule:nonzero;fill:#EE3E54;fill-opacity:1;" d="M 15 29 C 15 30.105469 14.105469 31 13 31 C 11.894531 31 11 30.105469 11 29 C 11 27.894531 11.894531 27 13 27 C 14.105469 27 15 27.894531 15 29 Z "/>
<path style=" stroke:none;fill-rule:nonzero;fill:#F1BC19;fill-opacity:1;" d="M 78 13 C 78 13.550781 77.550781 14 77 14 C 76.449219 14 76 13.550781 76 13 C 76 12.449219 76.449219 12 77 12 C 77.550781 12 78 12.449219 78 13 Z "/>
<path style=" stroke:none;fill-rule:nonzero;fill:#FCE0A2;fill-opacity:1;" d="M 87 50 C 87 70.433594 70.433594 87 50 87 C 29.566406 87 13 70.433594 13 50 C 13 29.566406 29.566406 13 50 13 C 70.433594 13 87 29.566406 87 50 Z "/>
<path style=" stroke:none;fill-rule:nonzero;fill:#F1BC19;fill-opacity:1;" d="M 87 15 C 87 17.210938 85.210938 19 83 19 C 80.789063 19 79 17.210938 79 15 C 79 12.789063 80.789063 11 83 11 C 85.210938 11 87 12.789063 87 15 Z "/>
<path style=" stroke:none;fill-rule:nonzero;fill:#EE3E54;fill-opacity:1;" d="M 89 24 C 89 25.105469 88.105469 26 87 26 C 85.894531 26 85 25.105469 85 24 C 85 22.894531 85.894531 22 87 22 C 88.105469 22 89 22.894531 89 24 Z "/>
<path style=" stroke:none;fill-rule:nonzero;fill:#FBCD59;fill-opacity:1;" d="M 83 76 C 83 77.105469 82.105469 78 81 78 C 79.894531 78 79 77.105469 79 76 C 79 74.894531 79.894531 74 81 74 C 82.105469 74 83 74.894531 83 76 Z "/>
<path style=" stroke:none;fill-rule:nonzero;fill:#FBCD59;fill-opacity:1;" d="M 19 63 C 19 65.210938 17.210938 67 15 67 C 12.789063 67 11 65.210938 11 63 C 11 60.789063 12.789063 59 15 59 C 17.210938 59 19 60.789063 19 63 Z "/>
<path style=" stroke:none;fill-rule:nonzero;fill:#EE3E54;fill-opacity:1;" d="M 27 87 C 27 88.105469 26.105469 89 25 89 C 23.894531 89 23 88.105469 23 87 C 23 85.894531 23.894531 85 25 85 C 26.105469 85 27 85.894531 27 87 Z "/>
<path style=" stroke:none;fill-rule:nonzero;fill:#FFFFFF;fill-opacity:1;" d="M 21 53.5 C 21 54.878906 19.878906 56 18.5 56 C 17.121094 56 16 54.878906 16 53.5 C 16 52.121094 17.121094 51 18.5 51 C 19.878906 51 21 52.121094 21 53.5 Z "/>
<path style=" stroke:none;fill-rule:nonzero;fill:#F1BC19;fill-opacity:1;" d="M 22 67 C 22 67.550781 21.550781 68 21 68 C 20.449219 68 20 67.550781 20 67 C 20 66.449219 20.449219 66 21 66 C 21.550781 66 22 66.449219 22 67 Z "/>
<path style=" stroke:none;fill-rule:nonzero;fill:#FFFFFF;fill-opacity:1;" d="M 81 34 C 81 34.550781 80.550781 35 80 35 C 79.449219 35 79 34.550781 79 34 C 79 33.449219 79.449219 33 80 33 C 80.550781 33 81 33.449219 81 34 Z "/>
<path style=" stroke:none;fill-rule:nonzero;fill:#A1D3A2;fill-opacity:1;" d="M 35 72.300781 C 30.976563 72.300781 27.699219 69.027344 27.699219 65 L 27.699219 35 C 27.699219 30.976563 30.972656 27.699219 35 27.699219 L 65 27.699219 C 69.023438 27.699219 72.300781 30.972656 72.300781 35 L 72.300781 65 C 72.300781 69.023438 69.027344 72.300781 65 72.300781 Z "/>
<path style=" stroke:none;fill-rule:nonzero;fill:#472B29;fill-opacity:1;" d="M 65 28.398438 C 68.640625 28.398438 71.601563 31.359375 71.601563 35 L 71.601563 65 C 71.601563 68.640625 68.640625 71.601563 65 71.601563 L 35 71.601563 C 31.359375 71.601563 28.398438 68.640625 28.398438 65 L 28.398438 35 C 28.398438 31.359375 31.359375 28.398438 35 28.398438 L 65 28.398438 M 65 27 L 35 27 C 30.601563 27 27 30.601563 27 35 L 27 65 C 27 69.398438 30.601563 73 35 73 L 65 73 C 69.398438 73 73 69.398438 73 65 L 73 35 C 73 30.601563 69.398438 27 65 27 Z "/>
<path style=" stroke:none;fill-rule:nonzero;fill:#472B29;fill-opacity:1;" d="M 68.5 47.375 C 68.222656 47.375 68 47.152344 68 46.875 L 68 43 C 68 42.722656 68.222656 42.5 68.5 42.5 C 68.777344 42.5 69 42.722656 69 43 L 69 46.875 C 69 47.152344 68.777344 47.375 68.5 47.375 Z "/>
<path style=" stroke:none;fill-rule:nonzero;fill:#472B29;fill-opacity:1;" d="M 68.5 40.5 C 68.222656 40.5 68 40.277344 68 40 L 68 38 C 68 37.722656 68.222656 37.5 68.5 37.5 C 68.777344 37.5 69 37.722656 69 38 L 69 40 C 69 40.277344 68.777344 40.5 68.5 40.5 Z "/>
<path style=" stroke:none;fill-rule:nonzero;fill:#472B29;fill-opacity:1;" d="M 64 69 L 36 69 C 33.242188 69 31 66.757813 31 64 L 31 36 C 31 33.242188 33.242188 31 36 31 L 61.375 31 C 61.652344 31 61.875 31.222656 61.875 31.5 C 61.875 31.777344 61.652344 32 61.375 32 L 36 32 C 33.792969 32 32 33.792969 32 36 L 32 64 C 32 66.207031 33.792969 68 36 68 L 64 68 C 66.207031 68 68 66.207031 68 64 L 68 49.625 C 68 49.347656 68.222656 49.125 68.5 49.125 C 68.777344 49.125 69 49.347656 69 49.625 L 69 64 C 69 66.757813 66.757813 69 64 69 Z "/>
<path style=" stroke:none;fill-rule:nonzero;fill:#FDFCEE;fill-opacity:1;" d="M 59.722656 48.5 L 51.5 48.5 L 51.5 39.582031 C 51.734375 38.625 50.960938 37.847656 50 37.847656 C 49.039063 37.847656 48.265625 38.625 48.5 39.582031 L 48.5 48.5 L 40.277344 48.5 C 39.320313 48.265625 38.542969 49.039063 38.542969 50 C 38.542969 50.960938 39.320313 51.734375 40.277344 51.5 L 48.5 51.5 L 48.5 60.417969 C 48.265625 61.375 49.039063 62.152344 50 62.152344 C 50.960938 62.152344 51.734375 61.375 51.5 60.417969 L 51.5 51.5 L 59.722656 51.5 C 60.679688 51.734375 61.457031 50.960938 61.457031 50 C 61.457031 49.039063 60.679688 48.265625 59.722656 48.5 Z "/>
<path style=" stroke:none;fill-rule:nonzero;fill:#472B29;fill-opacity:1;" d="M 50 62.652344 C 49.34375 62.652344 48.726563 62.363281 48.34375 61.875 C 48.003906 61.441406 47.882813 60.90625 48 60.359375 L 48 52 L 40.335938 52 C 39.789063 52.121094 39.25 51.996094 38.816406 51.65625 C 38.332031 51.273438 38.039063 50.65625 38.039063 50 C 38.039063 49.34375 38.332031 48.726563 38.816406 48.34375 C 39.25 48.003906 39.785156 47.882813 40.335938 48 L 48 48 L 48 39.640625 C 47.882813 39.09375 48.003906 38.558594 48.34375 38.125 C 48.726563 37.636719 49.34375 37.347656 50 37.347656 C 50.65625 37.347656 51.273438 37.636719 51.65625 38.125 C 51.996094 38.558594 52.117188 39.09375 52 39.640625 L 52 48 L 59.664063 48 C 60.214844 47.882813 60.75 48.003906 61.183594 48.34375 C 61.667969 48.726563 61.960938 49.34375 61.960938 50 C 61.960938 50.65625 61.667969 51.273438 61.183594 51.65625 C 60.75 51.996094 60.214844 52.121094 59.664063 52 L 52 52 L 52 60.359375 C 52.117188 60.90625 51.996094 61.441406 51.65625 61.875 C 51.273438 62.363281 50.65625 62.652344 50 62.652344 Z M 40.21875 51 L 49 51 L 48.984375 60.535156 C 48.902344 60.875 49.019531 61.117188 49.132813 61.261719 C 49.515625 61.753906 50.484375 61.753906 50.867188 61.261719 C 50.980469 61.117188 51.097656 60.875 51.015625 60.535156 L 51 60.417969 L 51 51 L 59.84375 51.015625 C 60.179688 51.097656 60.421875 50.984375 60.566406 50.867188 C 60.8125 50.675781 60.960938 50.351563 60.960938 50 C 60.960938 49.648438 60.8125 49.324219 60.566406 49.132813 C 60.421875 49.019531 60.179688 48.902344 59.84375 48.984375 L 59.722656 49 L 51 49 L 51.015625 39.464844 C 51.097656 39.125 50.980469 38.882813 50.867188 38.738281 C 50.484375 38.246094 49.515625 38.246094 49.132813 38.738281 C 49.019531 38.882813 48.902344 39.125 48.984375 39.464844 L 49 39.582031 L 49 49 L 40.15625 48.984375 C 39.820313 48.902344 39.578125 49.019531 39.433594 49.132813 C 39.1875 49.324219 39.039063 49.648438 39.039063 50 C 39.039063 50.351563 39.1875 50.675781 39.433594 50.867188 C 39.578125 50.980469 39.816406 51.097656 40.15625 51.015625 Z "/>
</g>
</svg>
