<?xml version="1.0" encoding="UTF-8"?>
<svg xmlns="http://www.w3.org/2000/svg" xmlns:xlink="http://www.w3.org/1999/xlink" width="100pt" height="100pt" viewBox="0 0 100 100" version="1.1">
<g id="surface1">
<path style=" stroke:none;fill-rule:nonzero;fill:#EE3E54;fill-opacity:1;" d="M 15 29 C 15 30.105469 14.105469 31 13 31 C 11.894531 31 11 30.105469 11 29 C 11 27.894531 11.894531 27 13 27 C 14.105469 27 15 27.894531 15 29 Z "/>
<path style=" stroke:none;fill-rule:nonzero;fill:#F1BC19;fill-opacity:1;" d="M 78 13 C 78 13.550781 77.550781 14 77 14 C 76.449219 14 76 13.550781 76 13 C 76 12.449219 76.449219 12 77 12 C 77.550781 12 78 12.449219 78 13 Z "/>
<path style=" stroke:none;fill-rule:nonzero;fill:#FCE0A2;fill-opacity:1;" d="M 87 50 C 87 70.433594 70.433594 87 50 87 C 29.566406 87 13 70.433594 13 50 C 13 29.566406 29.566406 13 50 13 C 70.433594 13 87 29.566406 87 50 Z "/>
<path style=" stroke:none;fill-rule:nonzero;fill:#F1BC19;fill-opacity:1;" d="M 87 15 C 87 17.210938 85.210938 19 83 19 C 80.789063 19 79 17.210938 79 15 C 79 12.789063 80.789063 11 83 11 C 85.210938 11 87 12.789063 87 15 Z "/>
<path style=" stroke:none;fill-rule:nonzero;fill:#EE3E54;fill-opacity:1;" d="M 89 24 C 89 25.105469 88.105469 26 87 26 C 85.894531 26 85 25.105469 85 24 C 85 22.894531 85.894531 22 87 22 C 88.105469 22 89 22.894531 89 24 Z "/>
<path style=" stroke:none;fill-rule:nonzero;fill:#FBCD59;fill-opacity:1;" d="M 83 76 C 83 77.105469 82.105469 78 81 78 C 79.894531 78 79 77.105469 79 76 C 79 74.894531 79.894531 74 81 74 C 82.105469 74 83 74.894531 83 76 Z "/>
<path style=" stroke:none;fill-rule:nonzero;fill:#FBCD59;fill-opacity:1;" d="M 19 63 C 19 65.210938 17.210938 67 15 67 C 12.789063 67 11 65.210938 11 63 C 11 60.789063 12.789063 59 15 59 C 17.210938 59 19 60.789063 19 63 Z "/>
<path style=" stroke:none;fill-rule:nonzero;fill:#EE3E54;fill-opacity:1;" d="M 27 87 C 27 88.105469 26.105469 89 25 89 C 23.894531 89 23 88.105469 23 87 C 23 85.894531 23.894531 85 25 85 C 26.105469 85 27 85.894531 27 87 Z "/>
<path style=" stroke:none;fill-rule:nonzero;fill:#FFFFFF;fill-opacity:1;" d="M 21 53.5 C 21 54.878906 19.878906 56 18.5 56 C 17.121094 56 16 54.878906 16 53.5 C 16 52.121094 17.121094 51 18.5 51 C 19.878906 51 21 52.121094 21 53.5 Z "/>
<path style=" stroke:none;fill-rule:nonzero;fill:#F1BC19;fill-opacity:1;" d="M 22 67 C 22 67.550781 21.550781 68 21 68 C 20.449219 68 20 67.550781 20 67 C 20 66.449219 20.449219 66 21 66 C 21.550781 66 22 66.449219 22 67 Z "/>
<path style=" stroke:none;fill-rule:nonzero;fill:#FFFFFF;fill-opacity:1;" d="M 81 34 C 81 34.550781 80.550781 35 80 35 C 79.449219 35 79 34.550781 79 34 C 79 33.449219 79.449219 33 80 33 C 80.550781 33 81 33.449219 81 34 Z "/>
<path style=" stroke:none;fill-rule:nonzero;fill:#FDFCEE;fill-opacity:1;" d="M 29 71.300781 C 28.835938 71.300781 28.699219 71.164063 28.699219 71 L 28.699219 47.871094 L 50 32.078125 L 71.300781 47.871094 L 71.300781 71 C 71.300781 71.164063 71.164063 71.300781 71 71.300781 Z "/>
<path style=" stroke:none;fill-rule:nonzero;fill:#472B29;fill-opacity:1;" d="M 50 32.949219 L 70.601563 48.222656 L 70.601563 70.601563 L 29.398438 70.601563 L 29.398438 48.222656 L 50 32.949219 M 50 31.207031 L 28 47.519531 L 28 71 C 28 71.554688 28.449219 72 29 72 L 71 72 C 71.550781 72 72 71.554688 72 71 L 72 47.519531 Z "/>
<path style=" stroke:none;fill-rule:nonzero;fill:#B3B2C3;fill-opacity:1;" d="M 43.5 70.625 L 43.5 52.207031 C 43.5 51.816406 43.789063 51.5 44.148438 51.5 L 55.851563 51.5 C 56.210938 51.5 56.5 51.816406 56.5 52.207031 L 56.5 70.625 "/>
<path style=" stroke:none;fill-rule:nonzero;fill:#472B29;fill-opacity:1;" d="M 44 70.625 L 44 52.207031 L 44.058594 52.046875 L 44.148438 52 L 55.851563 52 L 55.941406 52.046875 L 56 52.207031 L 56 70.625 L 57 70.625 L 57 52.207031 C 57 51.886719 56.882813 51.589844 56.679688 51.367188 C 56.476563 51.148438 56.179688 51 55.851563 51 L 44.148438 51 C 43.820313 51 43.523438 51.148438 43.320313 51.367188 C 43.117188 51.589844 43 51.886719 43 52.207031 L 43 70.625 Z "/>
<path style=" stroke:none;fill-rule:nonzero;fill:#CECCBE;fill-opacity:1;" d="M 72 47.519531 L 72 51.035156 L 50.019531 34.726563 L 28.042969 51.035156 L 28.042969 47.519531 L 50.019531 31.207031 Z "/>
<path style=" stroke:none;fill-rule:nonzero;fill:#EA5167;fill-opacity:1;" d="M 25.832031 42.507813 L 50 24 L 74.167969 42.507813 L 74.167969 49.625 L 50 31.117188 L 25.832031 49.625 Z "/>
<path style=" stroke:none;fill-rule:nonzero;fill:#472B29;fill-opacity:1;" d="M 25.832031 42.507813 L 26.257813 43.0625 L 50 24.882813 L 73.464844 42.851563 L 73.464844 48.207031 L 50.425781 30.5625 C 50.175781 30.367188 49.828125 30.367188 49.574219 30.5625 L 26.53125 48.207031 L 26.53125 42.507813 L 25.832031 42.507813 L 26.257813 43.0625 L 25.832031 42.507813 L 25.132813 42.507813 L 25.132813 49.625 C 25.132813 49.890625 25.285156 50.136719 25.523438 50.253906 C 25.761719 50.371094 26.046875 50.34375 26.257813 50.179688 L 50 32 L 73.742188 50.179688 C 73.953125 50.34375 74.238281 50.371094 74.476563 50.253906 C 74.714844 50.136719 74.867188 49.890625 74.867188 49.625 L 74.867188 42.507813 C 74.867188 42.289063 74.765625 42.082031 74.59375 41.949219 L 50.425781 23.445313 C 50.175781 23.25 49.828125 23.25 49.574219 23.445313 L 25.40625 41.949219 C 25.234375 42.082031 25.132813 42.289063 25.132813 42.507813 Z "/>
<path style=" stroke:none;fill-rule:nonzero;fill:#FEFDEF;fill-opacity:1;" d="M 71.488281 24.886719 L 71.488281 27.90625 C 71.488281 28.117188 71.328125 28.28125 71.125 28.28125 L 69.546875 28.304688 L 69.546875 40.746094 C 69.546875 40.890625 69.464844 41.019531 69.339844 41.085938 L 69.179688 41.125 L 68.964844 41.050781 L 64.601563 37.65625 C 64.503906 37.589844 64.453125 37.472656 64.453125 37.351563 L 64.453125 28.300781 L 62.875 28.28125 C 62.671875 28.28125 62.511719 28.113281 62.511719 27.902344 L 62.511719 24.886719 C 62.511719 24.675781 62.671875 24.507813 62.875 24.507813 L 71.125 24.507813 C 71.328125 24.511719 71.488281 24.675781 71.488281 24.886719 Z "/>
<path style=" stroke:none;fill-rule:nonzero;fill:#472B29;fill-opacity:1;" d="M 66.507813 38.507813 L 64.898438 37.253906 L 64.890625 37.246094 L 64.816406 37.355469 L 64.953125 37.355469 L 64.890625 37.246094 L 64.816406 37.355469 L 64.953125 37.355469 L 64.953125 27.808594 L 62.882813 27.78125 L 62.875 27.78125 L 62.875 27.921875 L 62.976563 27.824219 L 62.875 27.78125 L 62.875 27.921875 L 62.976563 27.824219 L 62.894531 27.90625 L 63.011719 27.90625 L 62.976563 27.824219 L 62.894531 27.90625 L 63.011719 27.90625 L 63.011719 24.886719 L 62.894531 24.886719 L 62.976563 24.96875 L 63.011719 24.886719 L 62.894531 24.886719 L 62.976563 24.96875 L 62.871094 24.867188 L 62.871094 25.011719 L 62.976563 24.96875 L 62.871094 24.867188 L 62.871094 25.011719 L 71.121094 25.011719 L 71.121094 24.867188 L 71.019531 24.96875 L 71.121094 25.011719 L 71.121094 24.867188 L 71.019531 24.96875 L 71.101563 24.886719 L 70.984375 24.886719 L 71.019531 24.96875 L 71.101563 24.886719 L 70.984375 24.886719 L 70.984375 27.90625 L 71.101563 27.90625 L 71.019531 27.824219 L 70.984375 27.90625 L 71.101563 27.90625 L 71.019531 27.824219 L 71.121094 27.921875 L 71.121094 27.78125 L 71.019531 27.824219 L 71.121094 27.921875 L 71.121094 27.78125 L 71.113281 27.78125 L 69.042969 27.808594 L 69.042969 40.75 L 69.15625 40.75 L 69.101563 40.648438 L 69.042969 40.75 L 69.15625 40.75 L 69.101563 40.648438 L 69.339844 41.089844 L 69.226563 40.601563 L 69.207031 40.605469 L 69.203125 40.601563 L 68.441406 40.007813 C 68.222656 39.839844 67.910156 39.878906 67.738281 40.097656 C 67.570313 40.3125 67.609375 40.628906 67.828125 40.796875 L 68.722656 41.492188 L 69.019531 41.597656 L 69.15625 41.644531 L 69.457031 41.570313 L 69.523438 41.554688 L 69.582031 41.523438 C 69.859375 41.371094 70.046875 41.078125 70.046875 40.746094 L 70.046875 28.796875 L 71.132813 28.78125 L 71.125 28.28125 L 71.125 28.78125 C 71.363281 28.78125 71.589844 28.679688 71.742188 28.519531 C 71.898438 28.359375 71.988281 28.136719 71.988281 27.902344 L 71.988281 24.886719 C 71.988281 24.652344 71.898438 24.433594 71.742188 24.269531 C 71.589844 24.109375 71.363281 24.007813 71.125 24.007813 L 62.875 24.007813 C 62.636719 24.007813 62.410156 24.109375 62.257813 24.269531 C 62.101563 24.433594 62.011719 24.652344 62.011719 24.886719 L 62.011719 27.902344 C 62.011719 28.136719 62.101563 28.359375 62.257813 28.519531 C 62.410156 28.679688 62.636719 28.78125 62.875 28.78125 L 62.875 28.28125 L 62.867188 28.78125 L 63.953125 28.796875 L 63.953125 37.355469 C 63.953125 37.609375 64.0625 37.886719 64.308594 38.0625 L 64.597656 37.65625 L 64.292969 38.050781 L 65.890625 39.296875 C 66.109375 39.464844 66.425781 39.425781 66.59375 39.207031 C 66.765625 38.988281 66.726563 38.675781 66.507813 38.507813 Z "/>
<path style=" stroke:none;fill-rule:nonzero;fill:#472B29;fill-opacity:1;" d="M 52.5 62 L 54.5 62 C 54.777344 62 55 61.777344 55 61.5 C 55 61.222656 54.777344 61 54.5 61 L 52.5 61 C 52.222656 61 52 61.222656 52 61.5 C 52 61.777344 52.222656 62 52.5 62 "/>
</g>
</svg>
