<?xml version="1.0" encoding="UTF-8"?>
<svg xmlns="http://www.w3.org/2000/svg" xmlns:xlink="http://www.w3.org/1999/xlink" width="100pt" height="100pt" viewBox="0 0 100 100" version="1.1">
<g id="surface1">
<path style=" stroke:none;fill-rule:nonzero;fill:#EE3E54;fill-opacity:1;" d="M 15 29 C 15 30.105469 14.105469 31 13 31 C 11.894531 31 11 30.105469 11 29 C 11 27.894531 11.894531 27 13 27 C 14.105469 27 15 27.894531 15 29 Z "/>
<path style=" stroke:none;fill-rule:nonzero;fill:#F1BC19;fill-opacity:1;" d="M 78 13 C 78 13.550781 77.550781 14 77 14 C 76.449219 14 76 13.550781 76 13 C 76 12.449219 76.449219 12 77 12 C 77.550781 12 78 12.449219 78 13 Z "/>
<path style=" stroke:none;fill-rule:nonzero;fill:#FCE0A2;fill-opacity:1;" d="M 87 50 C 87 70.433594 70.433594 87 50 87 C 29.566406 87 13 70.433594 13 50 C 13 29.566406 29.566406 13 50 13 C 70.433594 13 87 29.566406 87 50 Z "/>
<path style=" stroke:none;fill-rule:nonzero;fill:#F1BC19;fill-opacity:1;" d="M 87 15 C 87 17.210938 85.210938 19 83 19 C 80.789063 19 79 17.210938 79 15 C 79 12.789063 80.789063 11 83 11 C 85.210938 11 87 12.789063 87 15 Z "/>
<path style=" stroke:none;fill-rule:nonzero;fill:#EE3E54;fill-opacity:1;" d="M 89 24 C 89 25.105469 88.105469 26 87 26 C 85.894531 26 85 25.105469 85 24 C 85 22.894531 85.894531 22 87 22 C 88.105469 22 89 22.894531 89 24 Z "/>
<path style=" stroke:none;fill-rule:nonzero;fill:#FBCD59;fill-opacity:1;" d="M 83 76 C 83 77.105469 82.105469 78 81 78 C 79.894531 78 79 77.105469 79 76 C 79 74.894531 79.894531 74 81 74 C 82.105469 74 83 74.894531 83 76 Z "/>
<path style=" stroke:none;fill-rule:nonzero;fill:#FBCD59;fill-opacity:1;" d="M 19 63 C 19 65.210938 17.210938 67 15 67 C 12.789063 67 11 65.210938 11 63 C 11 60.789063 12.789063 59 15 59 C 17.210938 59 19 60.789063 19 63 Z "/>
<path style=" stroke:none;fill-rule:nonzero;fill:#EE3E54;fill-opacity:1;" d="M 27 87 C 27 88.105469 26.105469 89 25 89 C 23.894531 89 23 88.105469 23 87 C 23 85.894531 23.894531 85 25 85 C 26.105469 85 27 85.894531 27 87 Z "/>
<path style=" stroke:none;fill-rule:nonzero;fill:#FFFFFF;fill-opacity:1;" d="M 21 53.5 C 21 54.878906 19.878906 56 18.5 56 C 17.121094 56 16 54.878906 16 53.5 C 16 52.121094 17.121094 51 18.5 51 C 19.878906 51 21 52.121094 21 53.5 Z "/>
<path style=" stroke:none;fill-rule:nonzero;fill:#F1BC19;fill-opacity:1;" d="M 22 67 C 22 67.550781 21.550781 68 21 68 C 20.449219 68 20 67.550781 20 67 C 20 66.449219 20.449219 66 21 66 C 21.550781 66 22 66.449219 22 67 Z "/>
<path style=" stroke:none;fill-rule:nonzero;fill:#FFFFFF;fill-opacity:1;" d="M 81 34 C 81 34.550781 80.550781 35 80 35 C 79.449219 35 79 34.550781 79 34 C 79 33.449219 79.449219 33 80 33 C 80.550781 33 81 33.449219 81 34 Z "/>
<path style=" stroke:none;fill-rule:nonzero;fill:#E5AC80;fill-opacity:1;" d="M 68.121094 70.527344 C 67.714844 68.378906 66.839844 67.121094 64.777344 66.5 C 64.6875 66.472656 64.570313 66.429688 64.433594 66.378906 C 64.277344 66.308594 64.078125 66.230469 63.847656 66.140625 C 62.597656 65.609375 55.175781 62.871094 55.175781 62.871094 C 54.5625 62.71875 54.164063 62.28125 53.933594 61.789063 C 53.554688 60.980469 53.703125 58.875 53.703125 58.875 C 53.703125 58.875 50.597656 59.9375 48.660156 60.300781 C 46.761719 60.484375 42.679688 58.027344 42.679688 58.027344 C 42.679688 58.027344 42.582031 61.066406 42.453125 61.738281 C 42.351563 62.269531 41.78125 62.71875 41.167969 62.871094 L 34.046875 65.457031 C 33.257813 65.660156 32.5 65.957031 31.835938 66.367188 C 30.042969 67.472656 29.136719 69.136719 28.671875 70.527344 C 28.671875 70.527344 28.203125 73.84375 28.222656 73.960938 C 28.179688 74.425781 28.132813 74.9375 28.085938 75.472656 C 35.851563 80.730469 42.085938 82.203125 52.785156 81.734375 C 57.644531 81.523438 64.882813 79.121094 68.675781 77.210938 C 68.476563 72.984375 68.121094 70.527344 68.121094 70.527344 Z "/>
<path style=" stroke:none;fill-rule:nonzero;fill:#FDFCEF;fill-opacity:1;" d="M 64.777344 66.679688 C 64.6875 66.652344 64.570313 66.605469 64.433594 66.554688 C 64.277344 66.488281 64.078125 66.40625 63.847656 66.316406 C 63.074219 65.988281 59.941406 64.820313 57.664063 63.972656 L 57.558594 63.945313 C 55.039063 65.234375 51.460938 67.171875 48.171875 67.171875 C 44.886719 67.171875 41.589844 65.421875 38.789063 63.945313 L 38.476563 64.027344 L 34.042969 65.632813 C 33.257813 65.839844 32.5 66.132813 31.835938 66.542969 C 30.042969 67.652344 29.132813 69.3125 28.671875 70.703125 C 28.671875 70.703125 28.203125 74.019531 28.222656 74.140625 C 28.179688 74.601563 28.132813 79.582031 28.085938 80.121094 C 35.847656 85.378906 42.085938 86.851563 52.785156 86.382813 C 57.644531 86.167969 64.882813 83.769531 68.675781 81.855469 C 68.472656 77.632813 68.121094 70.703125 68.121094 70.703125 C 67.714844 68.558594 66.839844 67.300781 64.777344 66.679688 Z "/>
<path style=" stroke:none;fill-rule:nonzero;fill:#E1E0D8;fill-opacity:1;" d="M 34.902344 84.351563 C 34.738281 84.351563 34.601563 84.21875 34.601563 84.050781 L 34.601563 80.101563 C 34.601563 79.9375 34.738281 79.800781 34.902344 79.800781 C 35.070313 79.800781 35.203125 79.9375 35.203125 80.101563 L 35.203125 84.050781 C 35.203125 84.214844 35.070313 84.351563 34.902344 84.351563 Z "/>
<path style=" stroke:none;fill-rule:nonzero;fill:#E1E0D8;fill-opacity:1;" d="M 61.230469 85.046875 C 61.066406 85.046875 60.929688 84.910156 60.929688 84.746094 L 60.929688 80.101563 C 60.929688 79.933594 61.066406 79.800781 61.230469 79.800781 C 61.398438 79.800781 61.53125 79.933594 61.53125 80.101563 L 61.53125 84.746094 C 61.53125 84.910156 61.398438 85.046875 61.230469 85.046875 Z "/>
<path style=" stroke:none;fill-rule:nonzero;fill:#66798F;fill-opacity:1;" d="M 50.113281 72.792969 L 52.222656 86.464844 L 43.777344 86.464844 L 45.886719 72.792969 C 46.824219 71.089844 49.175781 71.089844 50.113281 72.792969 Z "/>
<path style=" stroke:none;fill-rule:nonzero;fill:#97AEC7;fill-opacity:1;" d="M 46.046875 70.882813 L 44.097656 66.625 L 51.902344 66.625 L 49.953125 70.882813 C 49.085938 72.386719 46.914063 72.386719 46.046875 70.882813 Z "/>
<path style=" stroke:none;fill-rule:nonzero;fill:#EAEAE8;fill-opacity:1;" d="M 40.9375 62.675781 L 38.546875 64.324219 L 43.667969 72.050781 L 48.417969 66.160156 C 48.417969 66.160156 41.285156 64.324219 40.9375 62.675781 Z "/>
<path style=" stroke:none;fill-rule:nonzero;fill:#EAEAE8;fill-opacity:1;" d="M 55.0625 62.675781 L 57.453125 64.324219 L 52.332031 72.050781 L 47.582031 66.160156 C 47.582031 66.160156 54.714844 64.324219 55.0625 62.675781 Z "/>
<path style=" stroke:none;fill-rule:nonzero;fill:#EDBC94;fill-opacity:1;" d="M 60.417969 44.175781 C 60.300781 44.164063 60.183594 44.164063 60.058594 44.164063 C 59.09375 44.117188 58.816406 44.5 58.863281 43.910156 C 58.941406 42.863281 58.792969 38.617188 58.792969 38.40625 C 58.792969 34.007813 54.140625 30.421875 48.324219 30.222656 L 48.324219 30.210938 C 48.285156 30.210938 48.25 30.214844 48.210938 30.214844 C 48.171875 30.214844 48.132813 30.210938 48.09375 30.210938 L 48.09375 30.222656 C 42.277344 30.421875 37.625 34.007813 37.625 38.40625 C 37.625 38.617188 37.476563 42.863281 37.554688 43.910156 C 37.601563 44.496094 37.324219 44.117188 36.359375 44.164063 C 36.234375 44.164063 36.117188 44.164063 36 44.175781 C 34.941406 44.242188 34.085938 44.90625 33.902344 45.730469 C 34.03125 45.808594 34.515625 49.414063 35.292969 50.832031 C 35.730469 51.625 36.410156 51.734375 37.109375 52.246094 C 37.496094 52.53125 37.570313 52.851563 37.675781 53.273438 C 38.070313 54.84375 39.15625 56.179688 40.351563 57.316406 C 40.941406 57.878906 44.851563 61.992188 48.210938 61.785156 C 51.585938 61.660156 55.476563 57.878906 56.066406 57.316406 C 57.261719 56.179688 58.347656 54.84375 58.742188 53.273438 C 58.847656 52.851563 58.921875 52.53125 59.308594 52.246094 C 60.007813 51.734375 60.6875 51.625 61.125 50.832031 C 61.902344 49.414063 62.386719 45.808594 62.515625 45.730469 C 62.332031 44.90625 61.476563 44.242188 60.417969 44.175781 Z "/>
<path style=" stroke:none;fill-rule:nonzero;fill:#512C2B;fill-opacity:1;" d="M 48.269531 52.058594 C 48.953125 52.058594 49.613281 51.761719 50.039063 51.261719 C 50.082031 51.210938 50.078125 51.136719 50.027344 51.09375 C 49.976563 51.050781 49.902344 51.054688 49.859375 51.105469 C 49.511719 51.503906 48.929688 51.730469 48.269531 51.730469 C 47.605469 51.730469 47.027344 51.503906 46.679688 51.105469 C 46.65625 51.078125 46.621094 51.0625 46.589844 51.0625 C 46.5625 51.0625 46.53125 51.074219 46.511719 51.09375 C 46.460938 51.136719 46.453125 51.210938 46.496094 51.261719 C 46.925781 51.761719 47.585938 52.058594 48.269531 52.058594 Z "/>
<path style=" stroke:none;fill-rule:nonzero;fill:#512C2B;fill-opacity:1;" d="M 46.089844 41.832031 L 46.523438 41 C 44.691406 40.570313 42.582031 40.640625 40.84375 41.179688 L 41.386719 41.992188 C 42.820313 41.519531 44.578125 41.460938 46.089844 41.832031 Z "/>
<path style=" stroke:none;fill-rule:nonzero;fill:#512C2B;fill-opacity:1;" d="M 55.261719 41.832031 L 55.695313 41 C 53.863281 40.570313 51.753906 40.640625 50.011719 41.179688 L 50.558594 41.992188 C 51.992188 41.519531 53.75 41.460938 55.261719 41.832031 Z "/>
<path style=" stroke:none;fill-rule:nonzero;fill:#512C2B;fill-opacity:1;" d="M 43.453125 43.007813 C 43.015625 43.007813 42.628906 43.296875 42.40625 43.738281 C 42.460938 43.722656 42.519531 43.710938 42.578125 43.710938 C 42.941406 43.710938 43.230469 44.035156 43.230469 44.4375 C 43.230469 44.839844 42.9375 45.167969 42.578125 45.167969 C 42.460938 45.167969 42.351563 45.128906 42.257813 45.066406 C 42.410156 45.730469 42.886719 46.210938 43.453125 46.210938 C 44.144531 46.210938 44.707031 45.492188 44.707031 44.609375 C 44.707031 43.726563 44.144531 43.007813 43.453125 43.007813 Z "/>
<path style=" stroke:none;fill-rule:nonzero;fill:#512C2B;fill-opacity:1;" d="M 53.03125 43.007813 C 52.65625 43.007813 52.320313 43.21875 52.089844 43.554688 C 52.160156 43.523438 52.238281 43.507813 52.320313 43.507813 C 52.679688 43.507813 52.972656 43.832031 52.972656 44.234375 C 52.972656 44.636719 52.679688 44.964844 52.320313 44.964844 C 52.097656 44.964844 51.898438 44.839844 51.78125 44.644531 C 51.796875 45.511719 52.351563 46.210938 53.03125 46.210938 C 53.722656 46.210938 54.28125 45.492188 54.28125 44.605469 C 54.28125 43.726563 53.722656 43.007813 53.03125 43.007813 Z "/>
<path style=" stroke:none;fill-rule:nonzero;fill:#512C2B;fill-opacity:1;" d="M 53.5625 53.914063 C 53.613281 53.871094 53.621094 53.796875 53.578125 53.746094 C 53.539063 53.695313 53.464844 53.6875 53.410156 53.730469 C 52.28125 54.628906 50.410156 55.144531 48.269531 55.144531 C 46.132813 55.144531 44.257813 54.628906 43.128906 53.726563 C 43.105469 53.710938 43.078125 53.703125 43.054688 53.703125 C 43.019531 53.703125 42.984375 53.71875 42.960938 53.746094 C 42.917969 53.796875 42.925781 53.875 42.976563 53.914063 C 44.25 54.957031 46.230469 55.578125 48.269531 55.578125 C 50.308594 55.578125 52.285156 54.957031 53.5625 53.914063 Z "/>
<path style=" stroke:none;fill-rule:nonzero;fill:#472B29;fill-opacity:1;" d="M 49.324219 86.863281 C 40.441406 86.863281 34.703125 85.085938 27.859375 80.449219 C 27.742188 80.371094 27.675781 80.230469 27.6875 80.085938 C 27.695313 79.976563 27.699219 79.605469 27.710938 79.070313 C 27.742188 76.894531 27.808594 72.363281 28.285156 70.601563 C 28.933594 68.214844 29.878906 67.28125 31.625 66.203125 C 32.277344 65.800781 33.058594 65.480469 33.941406 65.246094 L 41.03125 62.675781 C 41.570313 62.535156 41.992188 62.183594 42.058594 61.84375 C 42.089844 61.6875 42.148438 61.210938 42.214844 59.734375 C 41.171875 58.996094 40.316406 58.328125 40.070313 58.089844 C 38.523438 56.578125 37.640625 55.199219 37.289063 53.757813 C 37.179688 53.316406 37.125 53.121094 36.867188 52.929688 C 36.65625 52.773438 36.449219 52.652344 36.246094 52.539063 C 35.777344 52.277344 35.289063 52 34.941406 51.347656 C 34.109375 49.796875 33.503906 46.867188 33.503906 45.933594 C 33.734375 44.804688 34.75 44.019531 35.972656 43.9375 C 36.097656 43.929688 36.226563 43.929688 36.359375 43.929688 C 36.691406 43.910156 36.957031 43.945313 37.148438 43.976563 C 37.097656 42.964844 37.175781 40.171875 37.210938 38.949219 C 37.21875 38.65625 37.226563 38.46875 37.226563 38.425781 C 37.226563 33.738281 41.941406 29.894531 47.984375 29.644531 C 48.023438 29.632813 48.070313 29.628906 48.101563 29.625 L 48.210938 30.023438 L 48.238281 29.628906 C 48.28125 29.628906 48.328125 29.628906 48.378906 29.640625 C 54.445313 29.867188 59.191406 33.722656 59.191406 38.425781 C 59.191406 38.464844 59.199219 38.65625 59.207031 38.949219 C 59.242188 40.171875 59.320313 42.964844 59.269531 43.972656 C 59.460938 43.945313 59.730469 43.910156 60.078125 43.929688 C 60.191406 43.925781 60.320313 43.929688 60.449219 43.9375 C 61.671875 44.019531 62.683594 44.804688 62.90625 45.847656 C 62.914063 47.011719 62.269531 49.867188 61.476563 51.347656 C 61.128906 52 60.640625 52.277344 60.171875 52.539063 C 59.96875 52.652344 59.761719 52.773438 59.550781 52.929688 C 59.292969 53.121094 59.238281 53.316406 59.136719 53.738281 C 58.777344 55.199219 57.894531 56.578125 56.347656 58.089844 C 56.09375 58.339844 55.175781 59.085938 54.074219 59.878906 C 54.070313 60.785156 54.148438 61.480469 54.296875 61.796875 C 54.445313 62.117188 54.738281 62.527344 55.273438 62.664063 C 55.617188 62.789063 62.761719 65.421875 64.003906 65.949219 C 64.230469 66.035156 64.433594 66.117188 64.59375 66.1875 C 64.703125 66.230469 64.8125 66.269531 64.894531 66.292969 C 66.980469 66.921875 68.0625 68.21875 68.515625 70.628906 C 68.519531 70.648438 68.519531 70.664063 68.523438 70.683594 C 68.523438 70.683594 68.875 77.609375 69.074219 81.835938 C 69.085938 81.992188 68.996094 82.140625 68.855469 82.210938 C 64.824219 84.246094 57.539063 86.574219 52.804688 86.78125 C 51.589844 86.835938 50.433594 86.863281 49.324219 86.863281 Z M 28.492188 79.914063 C 35.945313 84.914063 42.105469 86.449219 52.765625 85.980469 C 57.308594 85.78125 64.261719 83.585938 68.265625 81.613281 C 68.070313 77.53125 67.746094 71.21875 67.722656 70.753906 C 67.320313 68.640625 66.460938 67.605469 64.664063 67.0625 C 64.566406 67.03125 64.4375 66.984375 64.289063 66.929688 C 64.121094 66.855469 63.929688 66.777344 63.703125 66.691406 C 62.464844 66.167969 55.109375 63.453125 55.035156 63.425781 C 54.421875 63.269531 53.886719 62.808594 53.570313 62.136719 C 53.351563 61.671875 53.253906 60.835938 53.277344 59.664063 C 53.277344 59.539063 53.34375 59.417969 53.445313 59.347656 C 54.664063 58.476563 55.585938 57.714844 55.785156 57.519531 C 57.222656 56.117188 58.035156 54.859375 58.351563 53.570313 C 58.46875 53.09375 58.570313 52.664063 59.066406 52.289063 C 59.308594 52.109375 59.546875 51.972656 59.777344 51.84375 C 60.195313 51.605469 60.53125 51.417969 60.769531 50.972656 C 61.5 49.609375 62.113281 46.90625 62.113281 45.933594 C 61.976563 45.332031 61.246094 44.792969 60.390625 44.734375 C 60.28125 44.730469 60.171875 44.726563 60.058594 44.726563 C 59.726563 44.710938 59.5 44.746094 59.316406 44.777344 C 59.082031 44.8125 58.839844 44.851563 58.640625 44.667969 C 58.429688 44.476563 58.453125 44.179688 58.460938 44.035156 C 58.523438 43.191406 58.4375 40.125 58.40625 38.972656 C 58.398438 38.667969 58.390625 38.46875 58.390625 38.425781 C 58.390625 34.144531 53.964844 30.636719 48.308594 30.441406 C 48.285156 30.4375 48.261719 30.4375 48.238281 30.429688 C 48.21875 30.433594 48.199219 30.433594 48.199219 30.433594 L 48.195313 30.425781 C 48.167969 30.433594 48.136719 30.4375 48.105469 30.441406 C 42.453125 30.636719 38.023438 34.144531 38.023438 38.425781 C 38.023438 38.46875 38.019531 38.671875 38.011719 38.972656 C 37.976563 40.125 37.890625 43.191406 37.953125 44.035156 C 37.964844 44.179688 37.984375 44.476563 37.777344 44.667969 C 37.574219 44.851563 37.332031 44.8125 37.097656 44.777344 C 36.914063 44.746094 36.6875 44.710938 36.378906 44.726563 C 36.242188 44.726563 36.132813 44.730469 36.027344 44.738281 C 35.167969 44.796875 34.441406 45.335938 34.292969 46.019531 C 34.300781 46.777344 34.882813 49.550781 35.644531 50.972656 C 35.886719 51.421875 36.21875 51.609375 36.640625 51.847656 C 36.867188 51.976563 37.105469 52.113281 37.347656 52.292969 C 37.84375 52.664063 37.945313 53.09375 38.058594 53.546875 C 38.378906 54.863281 39.191406 56.117188 40.628906 57.519531 C 40.828125 57.71875 41.710938 58.410156 42.851563 59.207031 C 42.964844 59.285156 43.027344 59.417969 43.023438 59.554688 C 42.964844 60.851563 42.902344 61.671875 42.84375 61.992188 C 42.695313 62.753906 41.945313 63.265625 41.261719 63.441406 L 34.175781 66.011719 C 33.335938 66.234375 32.628906 66.523438 32.042969 66.886719 C 30.414063 67.890625 29.636719 68.65625 29.054688 70.808594 C 28.605469 72.476563 28.535156 77.105469 28.507813 79.085938 C 28.503906 79.4375 28.5 79.722656 28.492188 79.914063 Z "/>
<path style=" stroke:none;fill-rule:nonzero;fill:#D3A47D;fill-opacity:1;" d="M 60.480469 48.882813 L 59.882813 48.8125 L 60.085938 47.035156 L 59.074219 47.472656 L 58.835938 46.921875 L 60.320313 46.277344 C 60.417969 46.234375 60.53125 46.25 60.617188 46.3125 C 60.703125 46.375 60.75 46.480469 60.738281 46.585938 Z "/>
<path style=" stroke:none;fill-rule:nonzero;fill:#D3A47D;fill-opacity:1;" d="M 36.261719 48.539063 L 36.003906 46.246094 C 35.992188 46.140625 36.039063 46.035156 36.125 45.96875 C 36.210938 45.90625 36.324219 45.890625 36.421875 45.9375 L 37.90625 46.578125 L 37.667969 47.132813 L 36.65625 46.691406 L 36.859375 48.472656 Z "/>
<path style=" stroke:none;fill-rule:nonzero;fill:#472B29;fill-opacity:1;" d="M 37.601563 52.980469 C 37.601563 52.980469 37.601563 52.980469 37.597656 52.980469 C 37.488281 52.976563 37.398438 52.886719 37.402344 52.777344 L 37.566406 44.128906 C 37.570313 44.019531 37.65625 43.933594 37.765625 43.933594 C 37.769531 43.933594 37.769531 43.933594 37.769531 43.933594 C 37.882813 43.933594 37.96875 44.027344 37.96875 44.136719 L 37.800781 52.785156 C 37.800781 52.894531 37.710938 52.980469 37.601563 52.980469 Z "/>
<path style=" stroke:none;fill-rule:nonzero;fill:#472B29;fill-opacity:1;" d="M 58.980469 52.980469 C 58.871094 52.980469 58.78125 52.894531 58.78125 52.785156 L 58.617188 44.136719 C 58.613281 44.027344 58.703125 43.933594 58.8125 43.933594 C 58.8125 43.933594 58.816406 43.933594 58.816406 43.933594 C 58.925781 43.933594 59.015625 44.019531 59.015625 44.128906 L 59.179688 52.777344 C 59.183594 52.886719 59.09375 52.976563 58.984375 52.980469 C 58.984375 52.980469 58.980469 52.980469 58.980469 52.980469 Z "/>
<path style=" stroke:none;fill-rule:nonzero;fill:#472B29;fill-opacity:1;" d="M 54.730469 58.398438 C 52.9375 59.628906 49.558594 60.304688 48.90625 59.242188 C 48.429688 58.464844 47.738281 58.464844 47.261719 59.242188 C 46.550781 60.402344 42.929688 59.203125 41.078125 57.878906 C 40.554688 57.902344 41.066406 58.054688 40.65625 58.414063 C 43.078125 60.496094 47.8125 63.328125 48.070313 63.238281 C 48.070313 63.238281 48.082031 63.246094 48.085938 63.242188 L 48.097656 63.238281 C 48.339844 63.242188 52.4375 60.871094 54.964844 58.855469 C 54.609375 58.421875 55.300781 58.410156 54.730469 58.398438 Z "/>
<path style=" stroke:none;fill-rule:nonzero;fill:#472B29;fill-opacity:1;" d="M 58.476563 32.90625 C 58.476563 32.90625 60.660156 33.347656 60.59375 35.5 C 60.53125 37.652344 59.035156 47.003906 59.035156 47.003906 L 55.972656 37.398438 Z "/>
<path style=" stroke:none;fill-rule:nonzero;fill:#472B29;fill-opacity:1;" d="M 46.914063 26.894531 L 45.761719 25.3125 C 45.761719 25.3125 58.753906 23.890625 58.734375 30.941406 C 58.710938 40.308594 50.253906 42.269531 50.253906 42.269531 L 50.898438 39.738281 L 45.824219 42.398438 L 46.464844 40.878906 L 42.226563 42.398438 L 43.769531 38.917969 L 39.980469 40.308594 C 39.980469 40.308594 38.496094 44.007813 37.949219 47.003906 C 37.949219 47.003906 35 37.089844 36.898438 36.320313 L 36.191406 35.941406 L 37.089844 34.171875 L 35.742188 33.601563 L 36.898438 31.953125 L 36.382813 31.257813 L 38.953125 29.804688 L 37.601563 29.109375 C 37.601563 29.109375 41.90625 25.5625 46.914063 26.894531 Z "/>
<path style=" stroke:none;fill-rule:nonzero;fill:#66798F;fill-opacity:1;" d="M 46.890625 43.476563 C 44.902344 41.050781 37.394531 42.769531 37.386719 42.769531 C 37.527344 43.316406 37.644531 43.859375 37.753906 44.394531 C 38.3125 44.449219 38.34375 45.703125 38.398438 46.160156 C 38.671875 48.371094 40.148438 50.003906 43.265625 49.925781 C 46.390625 49.765625 47.121094 47.503906 47.25 46.082031 C 47.386719 44.527344 46.890625 43.480469 46.890625 43.476563 Z M 46.535156 46.195313 C 46.375 48.175781 45.15625 49.335938 43.191406 49.433594 C 42.992188 49.441406 42.796875 49.445313 42.613281 49.4375 C 39.511719 49.429688 38.980469 46.714844 38.917969 45 C 38.878906 44.015625 39.582031 43.175781 40.570313 43.078125 C 41.140625 43.019531 41.78125 43.019531 42.523438 43.019531 C 44.839844 43.019531 45.847656 43.574219 46.117188 44.019531 C 46.273438 44.28125 46.625 45.117188 46.535156 46.195313 Z "/>
<path style=" stroke:none;fill-rule:nonzero;fill:#66798F;fill-opacity:1;" d="M 49.089844 46.082031 C 49.21875 47.503906 49.949219 49.765625 53.070313 49.925781 C 56.1875 50.003906 57.667969 48.371094 57.9375 46.160156 C 57.992188 45.703125 58.027344 44.449219 58.585938 44.394531 C 58.691406 43.859375 58.8125 43.316406 58.949219 42.769531 C 58.941406 42.769531 51.4375 41.050781 49.445313 43.476563 C 49.445313 43.480469 48.949219 44.527344 49.089844 46.082031 Z M 50.222656 44.019531 C 50.488281 43.574219 51.496094 43.023438 53.816406 43.023438 C 54.554688 43.023438 55.195313 43.023438 55.765625 43.078125 C 56.757813 43.175781 57.460938 44.015625 57.417969 45 C 57.359375 46.71875 56.828125 49.429688 53.726563 49.4375 C 53.539063 49.445313 53.347656 49.441406 53.148438 49.433594 C 51.179688 49.339844 49.964844 48.175781 49.800781 46.195313 C 49.710938 45.117188 50.0625 44.28125 50.222656 44.019531 Z "/>
<path style=" stroke:none;fill-rule:nonzero;fill:#66798F;fill-opacity:1;" d="M 49.515625 45.382813 C 49.515625 45.382813 49.007813 44.980469 48.117188 44.980469 C 47.28125 44.980469 46.820313 45.382813 46.820313 45.382813 C 46.6875 45.007813 46.550781 44.628906 46.414063 44.253906 C 47.582031 44.253906 48.753906 44.253906 49.921875 44.253906 C 49.785156 44.632813 49.652344 45.007813 49.515625 45.382813 Z "/>
</g>
</svg>
